<svg width="229" height="89" viewBox="0 0 229 89" fill="none" xmlns="http://www.w3.org/2000/svg">
<path d="M5.97203 69.96V56.76L45.212 0.599997H64.772V55.32H75.332V69.96H64.772V87H47.972V69.96H5.97203ZM49.052 18.6L24.452 55.32H49.052V18.6Z" fill="url(#paint0_linear_1580_19366)"/>
<mask id="path-2-inside-1_1580_19366" fill="white">
<path fill-rule="evenodd" clip-rule="evenodd" d="M138.092 38.0458C138.092 50.7737 127.774 61.0916 115.046 61.0916C102.318 61.0916 92 50.7737 92 38.0458C92 25.318 102.318 15 115.046 15C127.774 15 138.092 25.318 138.092 38.0458ZM131.047 70.3541C126.226 72.7466 120.793 74.0916 115.046 74.0916C95.1383 74.0916 79 57.9534 79 38.0458C79 18.1383 95.1383 2 115.046 2C134.953 2 151.092 18.1383 151.092 38.0458C151.092 47.9906 147.064 56.9947 140.552 63.5163L142.199 65.8691L148.204 74.4446L151.453 79.0853C153.308 81.7335 152.664 85.3836 150.016 87.238C147.367 89.0923 143.717 88.4487 141.863 85.8004L138.614 81.1597L132.609 72.5842L131.047 70.3541Z"/>
</mask>
<path d="M131.047 70.3541L142.516 62.324L135.61 52.4613L124.824 57.8133L131.047 70.3541ZM140.552 63.5163L130.645 53.6237L122.35 61.9302L129.084 71.5464L140.552 63.5163ZM142.199 65.8691L130.731 73.8992L130.731 73.8992L142.199 65.8691ZM148.204 74.4446L159.672 66.4145L159.672 66.4145L148.204 74.4446ZM151.453 79.0853L139.985 87.1153L139.985 87.1153L151.453 79.0853ZM150.016 87.238L158.046 98.7061L158.046 98.7061L150.016 87.238ZM141.863 85.8004L130.395 93.8305L130.395 93.8305L141.863 85.8004ZM138.614 81.1597L150.082 73.1297L150.082 73.1297L138.614 81.1597ZM132.609 72.5842L121.141 80.6143L121.141 80.6143L132.609 72.5842ZM115.046 75.0916C135.506 75.0916 152.092 58.5056 152.092 38.0458H124.092C124.092 43.0417 120.042 47.0916 115.046 47.0916V75.0916ZM78 38.0458C78 58.5056 94.586 75.0916 115.046 75.0916V47.0916C110.05 47.0916 106 43.0417 106 38.0458H78ZM115.046 1C94.586 1 78 17.586 78 38.0458H106C106 33.0499 110.05 29 115.046 29V1ZM152.092 38.0458C152.092 17.586 135.506 1 115.046 1V29C120.042 29 124.092 33.0499 124.092 38.0458H152.092ZM115.046 88.0916C123 88.0916 130.558 86.2257 137.271 82.8949L124.824 57.8133C121.894 59.2674 118.586 60.0916 115.046 60.0916V88.0916ZM65 38.0458C65 65.6853 87.4063 88.0916 115.046 88.0916V60.0916C102.87 60.0916 93 50.2214 93 38.0458H65ZM115.046 -12C87.4063 -12 65 10.4063 65 38.0458H93C93 25.8702 102.87 16 115.046 16V-12ZM165.092 38.0458C165.092 10.4063 142.685 -12 115.046 -12V16C127.221 16 137.092 25.8702 137.092 38.0458H165.092ZM150.458 73.4089C159.485 64.3696 165.092 51.8491 165.092 38.0458H137.092C137.092 44.132 134.644 49.6197 130.645 53.6237L150.458 73.4089ZM153.667 57.839L152.02 55.4862L129.084 71.5464L130.731 73.8992L153.667 57.839ZM159.672 66.4145L153.667 57.839L130.731 73.8992L136.736 82.4746L159.672 66.4145ZM162.921 71.0552L159.672 66.4145L136.736 82.4746L139.985 87.1153L162.921 71.0552ZM158.046 98.7061C167.028 92.4169 169.211 80.0371 162.921 71.0552L139.985 87.1153C137.405 83.4299 138.3 78.3504 141.986 75.7698L158.046 98.7061ZM130.395 93.8305C136.684 102.812 149.064 104.995 158.046 98.7061L141.986 75.7698C145.671 73.1893 150.751 74.0849 153.331 77.7703L130.395 93.8305ZM127.145 89.1898L130.395 93.8305L153.331 77.7704L150.082 73.1297L127.145 89.1898ZM121.141 80.6143L127.145 89.1898L150.082 73.1297L144.077 64.5542L121.141 80.6143ZM119.579 78.3841L121.141 80.6143L144.077 64.5542L142.516 62.324L119.579 78.3841Z" fill="url(#paint1_linear_1580_19366)" mask="url(#path-2-inside-1_1580_19366)"/>
<circle cx="114.94" cy="37.9753" r="23.25" transform="rotate(15 114.94 37.9753)" fill="url(#paint2_angular_1580_19366)"/>
<path d="M154.972 69.96V56.76L194.212 0.599997H213.772V55.32H224.332V69.96H213.772V87H196.972V69.96H154.972ZM198.052 18.6L173.452 55.32H198.052V18.6Z" fill="url(#paint3_linear_1580_19366)"/>
<defs>
<linearGradient id="paint0_linear_1580_19366" x1="27.5" y1="3.5" x2="74" y2="87" gradientUnits="userSpaceOnUse">
<stop stop-color="#84F8FF"/>
<stop offset="0.993243" stop-color="#7635FF"/>
</linearGradient>
<linearGradient id="paint1_linear_1580_19366" x1="54.4762" y1="47.1977" x2="125.769" y2="125.176" gradientUnits="userSpaceOnUse">
<stop stop-color="#83F8FF"/>
<stop offset="1" stop-color="#6C1CFF"/>
</linearGradient>
<radialGradient id="paint2_angular_1580_19366" cx="0" cy="0" r="1" gradientUnits="userSpaceOnUse" gradientTransform="translate(114.94 37.9753) scale(23.25)">
<stop stop-color="#76C0FF" stop-opacity="0.01"/>
<stop offset="1" stop-color="#56E6F1"/>
</radialGradient>
<linearGradient id="paint3_linear_1580_19366" x1="179" y1="2" x2="220.5" y2="87" gradientUnits="userSpaceOnUse">
<stop stop-color="#82EBFF"/>
<stop offset="1" stop-color="#703FFF"/>
</linearGradient>
</defs>
</svg>
