<svg width="84" height="78" viewBox="0 0 84 78" fill="none" xmlns="http://www.w3.org/2000/svg">
<path d="M0.134766 64.0385C0.134766 63.7441 0.192746 63.4526 0.305397 63.1806C0.418047 62.9087 0.583162 62.6616 0.791313 62.4534C0.999464 62.2453 1.24658 62.0802 1.51854 61.9675C1.7905 61.8549 2.08199 61.7969 2.37636 61.7969H40.4835C40.7778 61.7969 41.0693 61.8549 41.3413 61.9675C41.6132 62.0802 41.8604 62.2453 42.0685 62.4534C42.2767 62.6616 42.4418 62.9087 42.5544 63.1806C42.6671 63.4526 42.7251 63.7441 42.7251 64.0385V75.2464C42.7251 75.5408 42.6671 75.8323 42.5544 76.1043C42.4418 76.3762 42.2767 76.6233 42.0685 76.8315C41.8604 77.0396 41.6132 77.2048 41.3413 77.3174C41.0693 77.4301 40.7778 77.488 40.4835 77.488H2.37636C1.78185 77.488 1.21169 77.2519 0.791313 76.8315C0.370933 76.4111 0.134766 75.8409 0.134766 75.2464V64.0385Z" fill="#2405F2"/>
<path d="M0.134766 40.8646C0.134766 40.2701 0.370933 39.7 0.791313 39.2796C1.21169 38.8592 1.78185 38.623 2.37636 38.623H40.4835C40.7778 38.623 41.0693 38.681 41.3413 38.7937C41.6132 38.9063 41.8604 39.0714 42.0685 39.2796C42.2767 39.4877 42.4418 39.7349 42.5544 40.0068C42.6671 40.2788 42.7251 40.5703 42.7251 40.8646V52.0726C42.7251 52.367 42.6671 52.6585 42.5544 52.9304C42.4418 53.2024 42.2767 53.4495 42.0685 53.6577C41.8604 53.8658 41.6132 54.0309 41.3413 54.1436C41.0693 54.2562 40.7778 54.3142 40.4835 54.3142H2.37636C1.78185 54.3142 1.21169 54.078 0.791313 53.6577C0.370933 53.2373 0.134766 52.6671 0.134766 52.0726V40.8646V40.8646Z" fill="#2405F2"/>
<path d="M69.6242 17.6908C69.6242 17.3964 69.5662 17.105 69.4536 16.833C69.3409 16.561 69.1758 16.3139 68.9676 16.1058C68.7595 15.8976 68.5124 15.7325 68.2404 15.6198C67.9684 15.5072 67.677 15.4492 67.3826 15.4492H2.37636C2.08199 15.4492 1.7905 15.5072 1.51854 15.6198C1.24658 15.7325 0.999464 15.8976 0.791313 16.1058C0.583162 16.3139 0.418047 16.561 0.305397 16.833C0.192746 17.105 0.134766 17.3964 0.134766 17.6908V28.8988C0.134766 29.4933 0.370933 30.0634 0.791313 30.4838C1.21169 30.9042 1.78185 31.1404 2.37636 31.1404H67.3826C67.9771 31.1404 68.5473 30.9042 68.9676 30.4838C69.388 30.0634 69.6242 29.4933 69.6242 28.8988V17.6908V17.6908Z" fill="#2405F2"/>
<path d="M57.2952 57.3139C57.2952 56.7193 57.5313 56.1492 57.9517 55.7288C58.3721 55.3084 58.9423 55.0723 59.5368 55.0723C60.1313 55.0723 60.7014 55.3084 61.1218 55.7288C61.5422 56.1492 61.7784 56.7193 61.7784 57.3139V64.0386H69.6239C69.9183 64.0386 70.2098 64.0966 70.4818 64.2093C70.7537 64.3219 71.0008 64.487 71.209 64.6952C71.4171 64.9033 71.5823 65.1504 71.6949 65.4224C71.8076 65.6944 71.8655 65.9859 71.8655 66.2802C71.8655 66.5746 71.8076 66.8661 71.6949 67.1381C71.5823 67.41 71.4171 67.6571 71.209 67.8653C71.0008 68.0734 70.7537 68.2385 70.4818 68.3512C70.2098 68.4638 69.9183 68.5218 69.6239 68.5218H61.7784V75.2466C61.7784 75.541 61.7204 75.8325 61.6077 76.1044C61.4951 76.3764 61.33 76.6235 61.1218 76.8317C60.9137 77.0398 60.6666 77.2049 60.3946 77.3176C60.1226 77.4302 59.8311 77.4882 59.5368 77.4882C59.2424 77.4882 58.9509 77.4302 58.679 77.3176C58.407 77.2049 58.1599 77.0398 57.9517 76.8317C57.7436 76.6235 57.5785 76.3764 57.4658 76.1044C57.3532 75.8325 57.2952 75.541 57.2952 75.2466V68.5218H49.4496C48.8551 68.5218 48.2849 68.2857 47.8646 67.8653C47.4442 67.4449 47.208 66.8747 47.208 66.2802C47.208 65.6857 47.4442 65.1156 47.8646 64.6952C48.2849 64.2748 48.8551 64.0386 49.4496 64.0386H57.2952V57.3139Z" fill="#2405F2"/>
<circle cx="72" cy="16" r="11.5" fill="white" stroke="#2405F2"/>
<path d="M69.214 19.21C70.366 18.214 71.272 17.398 71.932 16.762C72.604 16.114 73.162 15.442 73.606 14.746C74.05 14.05 74.272 13.354 74.272 12.658C74.272 11.938 74.098 11.374 73.75 10.966C73.414 10.558 72.88 10.354 72.148 10.354C71.44 10.354 70.888 10.582 70.492 11.038C70.108 11.482 69.904 12.082 69.88 12.838H67.9C67.936 11.47 68.344 10.426 69.124 9.706C69.916 8.974 70.918 8.608 72.13 8.608C73.438 8.608 74.458 8.968 75.19 9.688C75.934 10.408 76.306 11.368 76.306 12.568C76.306 13.432 76.084 14.266 75.64 15.07C75.208 15.862 74.686 16.576 74.074 17.212C73.474 17.836 72.706 18.562 71.77 19.39L70.96 20.11H76.666V21.82H67.918V20.326L69.214 19.21Z" fill="#2405F2"/>
</svg>
