<svg width="32" height="32" viewBox="0 0 32 32" fill="none" xmlns="http://www.w3.org/2000/svg">
<mask id="mask0_1514_1163" style="mask-type:alpha" maskUnits="userSpaceOnUse" x="0" y="0" width="32" height="32">
<path fill-rule="evenodd" clip-rule="evenodd" d="M0 0H32V32H0V0Z" fill="white"/>
</mask>
<g mask="url(#mask0_1514_1163)">
<path fill-rule="evenodd" clip-rule="evenodd" d="M15.9966 11.0908C13.2937 11.0908 11.0879 13.2966 11.0879 15.9996C11.0879 18.7025 13.2937 20.9082 15.9966 20.9082C18.6995 20.9082 20.9053 18.7025 20.9053 15.9996C20.9053 13.2966 18.6995 11.0908 15.9966 11.0908ZM30.7186 15.9994C30.7186 13.9666 30.737 11.9523 30.623 9.92317C30.5087 7.56646 29.9712 5.47474 28.2478 3.75132C26.5208 2.02427 24.4328 1.49028 22.076 1.37621C20.0433 1.26198 18.029 1.28039 16.0001 1.28039C13.9674 1.28039 11.9531 1.26198 9.92398 1.37621C7.56736 1.49028 5.47564 2.0279 3.75225 3.75132C2.02523 5.47837 1.49125 7.56646 1.37718 9.92317C1.26296 11.9559 1.28137 13.9702 1.28137 15.9994C1.28137 18.0283 1.26296 20.0463 1.37718 22.0754C1.49125 24.4322 2.02886 26.5238 3.75225 28.2473C5.47927 29.9743 7.56736 30.5083 9.92398 30.6225C11.9567 30.7366 13.971 30.7182 16.0001 30.7182C18.0328 30.7182 20.0469 30.7366 22.076 30.6225C24.4328 30.5083 26.5244 29.9707 28.2478 28.2473C29.9748 26.5202 30.5087 24.4322 30.623 22.0754C30.7408 20.0463 30.7186 18.0321 30.7186 15.9994ZM15.996 23.553C11.8165 23.553 8.44336 20.1798 8.44336 16.0002C8.44336 11.8205 11.8165 8.44727 15.996 8.44727C20.1756 8.44727 23.5487 11.8205 23.5487 16.0002C23.5487 20.1798 20.1756 23.553 15.996 23.553ZM23.8585 9.90093C22.8827 9.90093 22.0946 9.11287 22.0946 8.13691C22.0946 7.16115 22.8827 6.37305 23.8585 6.37305C24.8344 6.37305 25.6225 7.16115 25.6225 8.13691C25.6229 8.60497 25.4373 9.05402 25.1064 9.3849C24.7756 9.71574 24.3265 9.90142 23.8585 9.90093Z" fill="white"/>
</g>
</svg>
