<svg width="51" height="51" viewBox="0 0 51 51" fill="none" xmlns="http://www.w3.org/2000/svg">
<g id="calendar">
<rect id="&#232;&#146;&#153;&#231;&#137;&#136;" x="0.515625" y="0.578125" width="49.875" height="49.875" rx="16" fill="url(#paint0_linear_1407_548)"/>
<path id="&#232;&#146;&#153;&#231;&#137;&#136;_2" fill-rule="evenodd" clip-rule="evenodd" d="M20.5287 14.7932C20.5287 15.8039 19.7139 16.6312 18.7183 16.6312C17.7228 16.6312 16.908 15.8039 16.908 14.7932V11.3223C16.908 10.3116 17.7228 9.48438 18.7183 9.48438C19.7139 9.48438 20.5287 10.3116 20.5287 11.3223V14.7932ZM33.8639 14.7932C33.8639 15.8039 33.049 16.6312 32.0535 16.6312C31.058 16.6312 30.2467 15.8039 30.2432 14.7932V11.3223C30.2432 10.3116 31.058 9.48438 32.0535 9.48438C33.049 9.48438 33.8639 10.3116 33.8639 11.3223V14.7932ZM40.0596 17.3538C40.0596 14.8289 38.026 12.7643 35.539 12.7643L34.3168 12.7643V15.2317C34.3168 16.4942 33.3 17.5265 32.0565 17.5265C30.813 17.5265 29.7927 16.4906 29.7927 15.2281V12.7607L20.9783 12.7607V15.2281C20.9783 16.4906 19.9616 17.5229 18.7181 17.5229C17.4746 17.5229 16.4578 16.4906 16.4578 15.2281V12.7607L15.1895 12.7607C12.7025 12.7607 10.6689 14.8253 10.6689 17.3502L10.6689 35.1758C10.6689 37.7008 12.7025 39.7653 15.1895 39.7653L35.539 39.7653C38.026 39.7653 40.0596 37.7008 40.0596 35.1758L40.0596 19.1126V19.0982V17.3538ZM33.2787 35.1796C34.5222 35.1796 35.539 34.1474 35.539 32.8849L35.539 20.458L15.1895 20.458L15.1895 32.8849C15.1895 34.1474 16.2062 35.1796 17.4497 35.1796L33.2787 35.1796ZM17.7576 23.9243C17.7576 23.5578 18.0547 23.2607 18.4211 23.2607H20.642C21.0085 23.2607 21.3056 23.5578 21.3056 23.9243V26.1993C21.3056 26.5657 21.0085 26.8628 20.642 26.8628H18.4211C18.0547 26.8628 17.7576 26.5657 17.7576 26.1993V23.9243ZM18.4211 28.6631C18.0547 28.6631 17.7576 28.9602 17.7576 29.3266L17.7576 31.6016C17.7576 31.9681 18.0547 32.2652 18.4211 32.2652H20.642C21.0085 32.2652 21.3056 31.9681 21.3056 31.6016V29.3266C21.3056 28.9602 21.0085 28.6631 20.642 28.6631H18.4211ZM23.6707 23.9243C23.6707 23.5578 23.9678 23.2607 24.3342 23.2607H26.5551C26.9216 23.2607 27.2187 23.5578 27.2187 23.9243V26.1993C27.2187 26.5657 26.9216 26.8628 26.5551 26.8628H24.3342C23.9678 26.8628 23.6707 26.5657 23.6707 26.1993V23.9243ZM24.3344 28.6633C23.9679 28.6633 23.6709 28.9603 23.6709 29.3268V31.6018C23.6709 31.9683 23.9679 32.2653 24.3344 32.2653H26.5553C26.9217 32.2653 27.2188 31.9683 27.2188 31.6018L27.2188 29.3268C27.2188 28.9603 26.9217 28.6633 26.5553 28.6633H24.3344ZM29.5848 23.9243C29.5848 23.5578 29.8818 23.2607 30.2483 23.2607H32.4692C32.8356 23.2607 33.1327 23.5578 33.1327 23.9243V26.1993C33.1327 26.5657 32.8356 26.8628 32.4692 26.8628L30.2483 26.8628C29.8818 26.8628 29.5848 26.5657 29.5848 26.1993V23.9243ZM30.2483 28.6631C29.8818 28.6631 29.5848 28.9602 29.5848 29.3266L29.5848 31.6016C29.5848 31.9681 29.8818 32.2652 30.2483 32.2652L32.4692 32.2652C32.8356 32.2652 33.1327 31.9681 33.1327 31.6016L33.1327 29.3266C33.1327 28.9602 32.8356 28.6631 32.4692 28.6631L30.2483 28.6631Z" fill="url(#paint1_linear_1407_548)"/>
<mask id="mask0_1407_548" style="mask-type:alpha" maskUnits="userSpaceOnUse" x="10" y="9" width="31" height="31">
<path id="&#232;&#146;&#153;&#231;&#137;&#136;_3" fill-rule="evenodd" clip-rule="evenodd" d="M20.5287 14.7932C20.5287 15.8039 19.7139 16.6312 18.7183 16.6312C17.7228 16.6312 16.908 15.8039 16.908 14.7932V11.3223C16.908 10.3116 17.7228 9.48438 18.7183 9.48438C19.7139 9.48438 20.5287 10.3116 20.5287 11.3223V14.7932ZM33.8639 14.7932C33.8639 15.8039 33.049 16.6312 32.0535 16.6312C31.058 16.6312 30.2467 15.8039 30.2432 14.7932V11.3223C30.2432 10.3116 31.058 9.48438 32.0535 9.48438C33.049 9.48438 33.8639 10.3116 33.8639 11.3223V14.7932ZM40.0596 17.3538C40.0596 14.8289 38.026 12.7643 35.539 12.7643L34.3168 12.7643V15.2317C34.3168 16.4942 33.3 17.5265 32.0565 17.5265C30.813 17.5265 29.7927 16.4906 29.7927 15.2281V12.7607L20.9783 12.7607V15.2281C20.9783 16.4906 19.9616 17.5229 18.7181 17.5229C17.4746 17.5229 16.4578 16.4906 16.4578 15.2281V12.7607L15.1895 12.7607C12.7025 12.7607 10.6689 14.8253 10.6689 17.3502L10.6689 35.1758C10.6689 37.7008 12.7025 39.7653 15.1895 39.7653L35.539 39.7653C38.026 39.7653 40.0596 37.7008 40.0596 35.1758L40.0596 19.1126V19.0982V17.3538ZM33.2787 35.1796C34.5222 35.1796 35.539 34.1474 35.539 32.8849L35.539 20.458L15.1895 20.458L15.1895 32.8849C15.1895 34.1474 16.2062 35.1796 17.4497 35.1796L33.2787 35.1796ZM17.7576 23.9243C17.7576 23.5578 18.0547 23.2607 18.4211 23.2607H20.642C21.0085 23.2607 21.3056 23.5578 21.3056 23.9243V26.1993C21.3056 26.5657 21.0085 26.8628 20.642 26.8628H18.4211C18.0547 26.8628 17.7576 26.5657 17.7576 26.1993V23.9243ZM18.4211 28.6631C18.0547 28.6631 17.7576 28.9602 17.7576 29.3266L17.7576 31.6016C17.7576 31.9681 18.0547 32.2652 18.4211 32.2652H20.642C21.0085 32.2652 21.3056 31.9681 21.3056 31.6016V29.3266C21.3056 28.9602 21.0085 28.6631 20.642 28.6631H18.4211ZM23.6707 23.9243C23.6707 23.5578 23.9678 23.2607 24.3342 23.2607H26.5551C26.9216 23.2607 27.2187 23.5578 27.2187 23.9243V26.1993C27.2187 26.5657 26.9216 26.8628 26.5551 26.8628H24.3342C23.9678 26.8628 23.6707 26.5657 23.6707 26.1993V23.9243ZM24.3344 28.6633C23.9679 28.6633 23.6709 28.9603 23.6709 29.3268V31.6018C23.6709 31.9683 23.9679 32.2653 24.3344 32.2653H26.5553C26.9217 32.2653 27.2188 31.9683 27.2188 31.6018L27.2188 29.3268C27.2188 28.9603 26.9217 28.6633 26.5553 28.6633H24.3344ZM29.5848 23.9243C29.5848 23.5578 29.8818 23.2607 30.2483 23.2607H32.4692C32.8356 23.2607 33.1327 23.5578 33.1327 23.9243V26.1993C33.1327 26.5657 32.8356 26.8628 32.4692 26.8628L30.2483 26.8628C29.8818 26.8628 29.5848 26.5657 29.5848 26.1993V23.9243ZM30.2483 28.6631C29.8818 28.6631 29.5848 28.9602 29.5848 29.3266L29.5848 31.6016C29.5848 31.9681 29.8818 32.2652 30.2483 32.2652L32.4692 32.2652C32.8356 32.2652 33.1327 31.9681 33.1327 31.6016L33.1327 29.3266C33.1327 28.9602 32.8356 28.6631 32.4692 28.6631L30.2483 28.6631Z" fill="white"/>
</mask>
<g mask="url(#mask0_1407_548)">
</g>
</g>
<defs>
<linearGradient id="paint0_linear_1407_548" x1="-17.333" y1="26.0575" x2="26.7135" y2="68.2136" gradientUnits="userSpaceOnUse">
<stop stop-color="#FF6A89"/>
<stop offset="1" stop-color="#FF3C66"/>
</linearGradient>
<linearGradient id="paint1_linear_1407_548" x1="0.150995" y1="24.9539" x2="26.8464" y2="49.7524" gradientUnits="userSpaceOnUse">
<stop stop-color="white"/>
<stop offset="1" stop-color="#FFACBE"/>
</linearGradient>
</defs>
</svg>
