<svg width="60" height="60" viewBox="0 0 60 60" fill="none" xmlns="http://www.w3.org/2000/svg">
<path opacity="0.8" d="M40.7324 19.6806C40.3382 19.2863 39.814 19.0691 39.2562 19.0691C38.6985 19.0691 38.1738 19.2863 37.7797 19.6806L32.2834 25.177L26.7886 19.6822C26.3938 19.2877 25.8697 19.0707 25.312 19.0707C24.7542 19.0707 24.2298 19.2877 23.8355 19.6822C23.0213 20.4963 23.0213 21.8208 23.8355 22.635L27.2413 26.0412H23.9179C23.6945 26.0412 23.5137 26.2224 23.5137 26.4451V29.8132C23.5137 30.0363 23.6945 30.2175 23.9179 30.2175H30.196V33.0131H23.9179C23.6945 33.0131 23.5137 33.1943 23.5137 33.4174V36.7854C23.5137 37.0085 23.6945 37.1897 23.9179 37.1897H30.196V43.468C30.196 44.6194 31.1327 45.5561 32.2841 45.5561C33.4355 45.5561 34.3722 44.6194 34.3722 43.468V37.1897H40.6505C40.8736 37.1897 41.0548 37.0085 41.0548 36.7854V33.4174C41.0548 33.1943 40.8736 33.0131 40.6505 33.0131H34.3722V30.2173H40.6505C40.8736 30.2173 41.0548 30.0361 41.0548 29.8131V26.445C41.0548 26.2219 40.8736 26.0411 40.6505 26.0411H37.3253L40.7326 22.6338C41.5468 21.8196 41.5468 20.4947 40.7324 19.6806ZM57.8216 19.2294C56.426 15.9298 54.4285 12.9667 51.8845 10.4227C49.3404 7.87862 46.3775 5.88134 43.0779 4.48586C39.661 3.04058 36.0322 2.30762 32.2922 2.30762C28.5527 2.30762 24.924 3.04058 21.5072 4.48586C18.2076 5.88122 15.245 7.87898 12.7012 10.4227C10.1571 12.9669 8.15965 15.9298 6.76405 19.2294C6.19153 20.5828 5.72713 21.9835 5.37829 23.4071L3.99745 20.2996C3.66253 19.5462 2.91325 19.0589 2.08813 19.0589C1.79545 19.0589 1.51045 19.1196 1.24129 19.2393C0.73165 19.4656 0.34057 19.8769 0.14041 20.3977C-0.0597499 20.9183 -0.0455899 21.4855 0.18085 21.9954L4.46185 31.6305C4.48357 31.6807 4.50817 31.7325 4.53589 31.7839C4.53889 31.7896 4.54189 31.7952 4.54489 31.8009C4.56985 31.8463 4.59397 31.8874 4.61857 31.9264C4.62037 31.929 4.62301 31.933 4.62541 31.9368C4.64593 31.968 4.66861 32.0007 4.69261 32.0334C4.70185 32.0465 4.71337 32.0616 4.72501 32.0769C4.74109 32.0974 4.75681 32.1174 4.77349 32.137C4.79605 32.1647 4.82137 32.1933 4.84693 32.2206L4.85377 32.2284C4.86625 32.2417 4.87909 32.2554 4.89181 32.2685C4.90525 32.2819 4.91941 32.2956 4.93345 32.3089L4.93873 32.3143C4.95637 32.3307 4.97413 32.3473 4.99201 32.3634C5.00749 32.3771 5.02165 32.3896 5.03605 32.4015C5.06041 32.422 5.08717 32.4435 5.11453 32.4642C5.12281 32.4708 5.12965 32.4762 5.13625 32.4809C5.17285 32.508 5.21101 32.5342 5.25253 32.5609C5.25493 32.5627 5.25793 32.5645 5.26033 32.566C5.29717 32.5895 5.33617 32.6122 5.37613 32.6338L5.38909 32.641C5.47417 32.6867 5.56225 32.7267 5.65117 32.7597C5.65321 32.7606 5.65537 32.7612 5.65741 32.7621C5.69545 32.776 5.73529 32.7891 5.77873 32.8021L5.79157 32.806L5.80285 32.8092C5.84269 32.8205 5.87965 32.83 5.91529 32.8381L5.91673 32.8384L5.93401 32.8426C5.93641 32.8432 5.93905 32.8438 5.94169 32.8444C5.98129 32.8527 6.02329 32.8603 6.06601 32.8667C6.08029 32.8687 6.09517 32.8708 6.11005 32.8726L6.11785 32.8734C6.14317 32.8767 6.16813 32.8793 6.19309 32.8818L6.20173 32.8827C6.21961 32.8842 6.23713 32.8857 6.25501 32.8865C6.28033 32.8881 6.30577 32.8889 6.33169 32.8895L6.33745 32.8899C6.35137 32.8905 6.36541 32.8911 6.37933 32.8911C6.43441 32.8911 6.49153 32.8884 6.55393 32.8833L6.55777 32.8829C6.56041 32.8825 6.56293 32.8824 6.56557 32.8824C6.62233 32.877 6.67921 32.8693 6.73477 32.8597C6.74425 32.8579 6.75241 32.8565 6.76009 32.8553C6.81685 32.8445 6.86869 32.833 6.91777 32.8199C6.92581 32.8179 6.93385 32.8155 6.94213 32.8127C6.94369 32.8125 6.94453 32.8122 6.94597 32.8119C6.98665 32.8 7.02901 32.7865 7.07113 32.7717L7.07893 32.769C7.09141 32.7649 7.10389 32.7604 7.11637 32.7556C7.15381 32.7417 7.19041 32.7265 7.22557 32.7111C7.22701 32.7105 7.22881 32.7099 7.23025 32.7089C7.23649 32.7063 7.24213 32.7033 7.24813 32.7003C7.26589 32.6922 7.28077 32.6851 7.29589 32.6777C7.34533 32.6533 7.38877 32.6301 7.43005 32.6061C7.43629 32.6025 7.44289 32.5986 7.44937 32.5944L7.45441 32.5914C7.56805 32.523 7.67329 32.4454 7.76977 32.3597L15.7013 25.4106C16.5672 24.6519 16.6547 23.3299 15.8958 22.4638C15.4993 22.0114 14.9267 21.7517 14.3246 21.7517C13.8184 21.7517 13.33 21.9355 12.9492 22.2693L9.18337 25.5683C11.2902 14.6125 21.0312 6.48374 32.2921 6.48374C45.2674 6.48374 55.8233 17.0398 55.8233 30.0149C55.8233 42.9895 45.2673 53.5452 32.2921 53.5452C26.6777 53.5452 21.2412 51.5353 16.9837 47.8859C16.6054 47.5617 16.1229 47.3832 15.6252 47.3832C15.0143 47.3832 14.4364 47.6491 14.0392 48.1126C13.2899 48.9868 13.3913 50.3075 14.2656 51.0568C19.2797 55.3547 25.6816 57.7212 32.2921 57.7212C36.0317 57.7212 39.6606 56.9886 43.0777 55.5432C46.3774 54.1476 49.3403 52.1502 51.884 49.6065C54.4282 47.0626 56.4256 44.0997 57.8212 40.8C59.2669 37.3833 59.9999 33.7546 59.9999 30.015C59.9999 26.2755 59.2667 22.6465 57.8216 19.2294Z" fill="#282938"/>
</svg>
