<svg width="36" height="36" viewBox="0 0 36 36" fill="none" xmlns="http://www.w3.org/2000/svg">
<path d="M30.2817 10.1652L30.917 9.52986C31.1287 9.10633 31.1287 8.6828 31.1287 8.25927C30.917 7.83574 30.7052 7.41221 30.2817 7.20045L19.9052 1.27104C18.6346 0.423977 16.9405 0.423977 15.6699 1.27104L5.50519 7.20045C5.08166 7.20045 4.8699 7.41221 4.8699 7.83574C4.65813 8.25927 4.44637 8.6828 4.65813 9.10633C4.8699 9.52986 5.08166 9.95339 5.50519 10.1652L15.8817 16.0946C16.517 16.5181 17.364 16.7299 17.9993 16.7299C18.6346 16.7299 19.4817 16.5181 20.117 16.0946L30.2817 10.1652ZM16.7287 14.1887L7.19931 8.6828L16.9405 3.17692C17.5758 2.75339 18.4228 2.75339 19.0581 3.17692L28.5875 8.6828L18.8464 14.1887C18.2111 14.6122 17.364 14.6122 16.7287 14.1887ZM14.8228 17.7887L6.35225 12.9181C5.92872 12.9181 5.71696 12.7063 5.29343 12.7063C4.02284 12.7063 3.17578 13.7652 3.17578 14.824V25.624C3.17578 27.1063 4.02284 28.5887 5.29343 29.224L13.764 34.0946C14.1875 34.3063 14.3993 34.3063 14.8228 34.3063C16.0934 34.3063 16.9405 33.4593 16.9405 32.1887V21.3887C16.9405 19.9063 16.0934 18.6357 14.8228 17.7887ZM14.8228 32.4004L6.35225 27.5299C5.71696 27.1063 5.29343 26.471 5.29343 25.624V14.824L5.71696 13.9769L5.29343 14.824L13.764 19.6946C14.3993 20.1181 14.8228 20.7534 14.8228 21.6005V32.4004ZM30.7052 12.7063C30.2817 12.7063 30.0699 12.7063 29.6464 12.9181L21.1758 17.7887C19.9052 18.6357 19.0581 19.9063 19.0581 21.3887V32.1887C19.0581 33.4593 19.9052 34.3063 21.1758 34.3063C21.5993 34.3063 21.8111 34.3063 22.2346 34.0946L30.7052 29.224C31.9758 28.3769 32.8228 27.1063 32.8228 25.624V14.824C32.8228 13.7652 31.9758 12.7063 30.7052 12.7063ZM30.7052 25.624C30.7052 26.471 30.2817 27.1063 29.6464 27.5299L21.1758 32.4004V21.6005C21.1758 20.7534 21.5993 20.1181 22.2346 19.6946L30.7052 14.824V25.624Z" fill="#5037F4"/>
</svg>
