<svg width="36" height="36" viewBox="0 0 36 36" fill="none" xmlns="http://www.w3.org/2000/svg">
<path opacity="0.5" d="M32.3621 15.3248C32.0949 13.908 31.093 12.9763 29.9082 12.9974H29.7887C28.502 12.9974 27.4578 11.9533 27.4578 10.6666C27.4578 10.3924 27.5844 9.99509 27.6687 9.79118C28.2102 8.5572 27.7848 7.04548 26.6527 6.25446L23.0668 4.25407L22.9191 4.18376C21.8047 3.70212 20.3633 3.99392 19.5301 4.85876C18.9992 5.4072 18.0465 6.04352 17.6105 6.04352C17.1711 6.04352 16.2113 5.39313 15.6805 4.83767C14.8508 3.96228 13.4938 3.62829 12.2563 4.15212L8.55078 6.18063L8.40313 6.27556C7.28867 7.04899 6.86328 8.57126 7.4082 9.7947C7.475 9.95642 7.61914 10.3818 7.61914 10.6701C7.61914 11.9568 6.575 13.0009 5.28828 13.0009H5.19688C3.96992 12.9799 2.97852 13.908 2.71133 15.3283C2.67969 15.497 2.39844 17.0228 2.39844 18.2814C2.39844 19.54 2.67969 21.0658 2.71133 21.2345C2.975 22.6267 3.95234 23.5619 5.14414 23.5619H5.28828C6.575 23.5619 7.61914 24.606 7.61914 25.8927C7.61914 26.181 7.47852 26.6064 7.41523 26.7541C6.8668 27.9916 7.28867 29.5103 8.43125 30.3119L11.9398 32.2806L12.084 32.3509C12.4531 32.5127 12.8504 32.5935 13.2652 32.5935C14.1266 32.5935 14.9457 32.2455 15.5047 31.6338C16.025 31.0677 17.034 30.3752 17.4664 30.3752C17.9164 30.3752 18.9008 31.0677 19.4387 31.6584C19.9941 32.2701 20.8379 32.6357 21.6957 32.6357C22.1035 32.6357 22.4902 32.5584 22.9016 32.3791L26.5297 30.3787L26.6773 30.2838C27.7883 29.5103 28.2137 27.9916 27.6652 26.7541C27.5984 26.5924 27.4578 26.174 27.4578 25.8892C27.4578 24.6025 28.502 23.5584 29.7887 23.5584H29.9293C31.1246 23.5584 32.0984 22.6302 32.3621 21.2416C32.3656 21.224 32.6785 19.6138 32.6785 18.2744C32.675 17.0123 32.3937 15.4935 32.3621 15.3248ZM29.8555 20.7599C29.8344 20.8759 29.8027 20.9568 29.7781 21.0095C27.0922 21.0131 24.9055 23.2033 24.9055 25.8892C24.9055 26.6978 25.2008 27.4959 25.3309 27.7841C25.3871 27.9072 25.3449 28.0795 25.2148 28.1884L21.8258 30.0623C21.6605 30.1185 21.4074 30.0306 21.323 29.9392C21.1262 29.7213 19.3367 27.8193 17.4629 27.8193C15.5645 27.8193 13.7047 29.8162 13.6273 29.9006C13.55 29.9849 13.3672 30.1009 13.1141 30.0095L9.84102 28.1779C9.73203 28.09 9.68281 27.9072 9.74258 27.7701C9.78477 27.6716 10.1645 26.7822 10.1645 25.8822C10.1645 23.1927 7.98125 21.006 5.2918 21.0025C5.26719 20.9498 5.23555 20.8689 5.21094 20.7529C5.20039 20.6966 4.94375 19.315 4.94375 18.2709C4.94375 17.2267 5.20039 15.8451 5.21094 15.7888C5.23203 15.6728 5.26367 15.5884 5.2918 15.5392C7.97773 15.5357 10.1645 13.349 10.1645 10.6595C10.1645 9.78063 9.81641 8.93337 9.73906 8.7611C9.68633 8.63806 9.725 8.46931 9.85156 8.36032L13.3039 6.4654C13.4727 6.40563 13.7434 6.49353 13.8313 6.58493C14.0246 6.78884 15.7895 8.58181 17.607 8.58181C19.407 8.58181 21.1648 6.82399 21.3582 6.62009C21.4426 6.53571 21.65 6.42321 21.8891 6.5111L25.2254 8.36384C25.3379 8.45173 25.3836 8.63454 25.3273 8.7611L25.3027 8.82438C25.1938 9.09157 24.9055 9.87204 24.9055 10.6595C24.9055 13.349 27.0887 15.5357 29.7781 15.5392C29.8027 15.592 29.8344 15.6728 29.859 15.7888C29.8625 15.8029 30.1262 17.2162 30.1262 18.2709C30.1227 19.1709 29.9258 20.3943 29.8555 20.7599Z" fill="#1C1E53"/>
<path opacity="0.5" d="M17.532 12.5117C14.3574 12.5117 11.7734 15.0957 11.7734 18.2703C11.7734 21.4449 14.3574 24.0289 17.532 24.0289C20.7066 24.0289 23.2906 21.4449 23.2906 18.2703C23.2906 15.0922 20.7066 12.5117 17.532 12.5117ZM17.532 22.1129C15.4121 22.1129 13.6859 20.3867 13.6859 18.2668C13.6859 16.1469 15.4121 14.4207 17.532 14.4207C19.652 14.4207 21.3781 16.1469 21.3781 18.2668C21.3781 20.3867 19.652 22.1129 17.532 22.1129Z" fill="#1C1E53"/>
</svg>
