<svg width="83" height="85" viewBox="0 0 83 85" fill="none" xmlns="http://www.w3.org/2000/svg">
<path d="M64.7625 84.5751H7.23714C3.45201 84.5751 0.424805 81.5465 0.424805 77.7629V20.2362C0.424805 16.4518 3.4521 13.4238 7.23714 13.4238H64.7625C68.549 13.4238 71.5748 16.4518 71.5748 20.2362V77.7629C71.5748 81.5465 68.3956 84.5751 64.7625 84.5751ZM7.9936 77.0051H64.0075V20.9933H7.9936V77.0051Z" fill="#2405F2"/>
<path d="M64.7625 84.5751H7.23714C3.45201 84.5751 0.424805 81.5465 0.424805 77.7629V20.2362C0.424805 16.4518 3.4521 13.4238 7.23714 13.4238H64.7625C68.549 13.4238 71.5748 16.4518 71.5748 20.2362V77.7629C71.5748 81.5465 68.3956 84.5751 64.7625 84.5751ZM7.9936 29.2433H64.0075V20.9933H7.9936V29.2433Z" fill="#2405F2"/>
<path d="M49.9286 53.3053L30.5503 42.1018C28.8849 41.1935 26.917 42.4048 26.917 44.2214V66.6262C26.917 68.4429 28.8848 69.6548 30.5503 68.7467L49.9286 57.5431C51.5919 56.4845 51.5919 54.2135 49.9286 53.3053Z" fill="white"/>
<path d="M16.623 16.9062H22.6789V32.1964H16.623V16.9062ZM32.9727 16.9062H39.0292V32.1964H32.9727V16.9062ZM49.0207 16.9062H55.0752V32.1964H49.0207V16.9062Z" fill="#2405F2"/>
<circle cx="71" cy="15" r="11.5" fill="white" stroke="#2405F2"/>
<path d="M67.044 12.118C67.116 11.002 67.542 10.132 68.322 9.508C69.114 8.884 70.122 8.572 71.346 8.572C72.186 8.572 72.912 8.722 73.524 9.022C74.136 9.322 74.598 9.73 74.91 10.246C75.222 10.762 75.378 11.344 75.378 11.992C75.378 12.736 75.18 13.372 74.784 13.9C74.388 14.428 73.914 14.782 73.362 14.962V15.034C74.07 15.25 74.622 15.646 75.018 16.222C75.414 16.786 75.612 17.512 75.612 18.4C75.612 19.108 75.45 19.738 75.126 20.29C74.802 20.842 74.322 21.28 73.686 21.604C73.05 21.916 72.288 22.072 71.4 22.072C70.104 22.072 69.036 21.742 68.196 21.082C67.368 20.41 66.924 19.45 66.864 18.202H68.844C68.892 18.838 69.138 19.36 69.582 19.768C70.026 20.164 70.626 20.362 71.382 20.362C72.114 20.362 72.678 20.164 73.074 19.768C73.47 19.36 73.668 18.838 73.668 18.202C73.668 17.362 73.398 16.768 72.858 16.42C72.33 16.06 71.514 15.88 70.41 15.88H69.942V14.188H70.428C71.4 14.176 72.138 14.014 72.642 13.702C73.158 13.39 73.416 12.898 73.416 12.226C73.416 11.65 73.23 11.194 72.858 10.858C72.486 10.51 71.958 10.336 71.274 10.336C70.602 10.336 70.08 10.51 69.708 10.858C69.336 11.194 69.114 11.614 69.042 12.118H67.044Z" fill="#2405F2"/>
</svg>
