<svg width="72" height="85" viewBox="0 0 72 85" fill="none" xmlns="http://www.w3.org/2000/svg">
<path d="M54.7752 25.2936C54.7752 23.6044 54.1159 22.0142 52.9212 20.8195L46.9557 14.854C45.7775 13.6757 44.1051 13 42.4407 13H42.0781V25.6561H54.7753L54.7752 25.2936Z" fill="#2405F2"/>
<path d="M38.522 56.5281C38.9257 55.3025 39.6302 54.1613 40.5489 53.2364L54.8309 39.012V29.8748H40.0092C38.8433 29.8748 37.9683 28.9314 37.9683 27.7655V13H6.32805C2.83862 13 0 15.8386 0 19.3281V78.6711C0 82.1606 2.83862 84.9992 6.32805 84.9992H48.4466C51.936 84.9992 54.8309 82.1606 54.8309 78.6711V62.9282L52.5129 65.19C51.5736 66.1211 50.4737 66.7987 49.2335 67.2129L42.5265 69.452L41.5047 69.5077C39.8156 69.5077 38.2171 68.6857 37.2243 67.3097C36.2396 65.9399 35.9719 64.1643 36.5074 62.5596L38.522 56.5281ZM10.5468 50.9683H31.5718C32.7377 50.9683 33.6811 51.9118 33.6811 53.0777C33.6811 54.2436 32.7377 55.187 31.5718 55.187H10.5468C9.38085 55.187 8.43741 54.2436 8.43741 53.0777C8.43741 51.9118 9.38085 50.9683 10.5468 50.9683ZM8.43741 44.6403C8.43741 43.4744 9.38085 42.5309 10.5468 42.5309H31.5718C32.7377 42.5309 33.6811 43.4744 33.6811 44.6403C33.6811 45.8062 32.7377 46.7496 31.5718 46.7496H10.5468C9.38085 46.7496 8.43741 45.8062 8.43741 44.6403ZM8.43741 61.5151C8.43741 60.3492 9.38085 59.4057 10.5468 59.4057H31.5718C32.7377 59.4057 33.6811 60.3492 33.6811 61.5151C33.6811 62.681 32.7377 63.6244 31.5718 63.6244H10.5468C9.38085 63.6244 8.43741 62.681 8.43741 61.5151ZM40.0092 72.0618C41.1751 72.0618 42.1185 73.0053 42.1185 74.1712C42.1185 75.3371 41.1752 76.2805 40.0092 76.2805H27.3531C26.1872 76.2805 25.2437 75.3371 25.2437 74.1712C25.2437 73.0053 26.1872 72.0618 27.3531 72.0618H40.0092ZM10.5468 38.3122C9.38085 38.3122 8.43741 37.3688 8.43741 36.2029C8.43741 35.037 9.38085 34.0935 10.5468 34.0935H40.0092C41.1751 34.0935 42.1185 35.037 42.1185 36.2029C42.1185 37.3688 41.1751 38.3122 40.0092 38.3122H10.5468Z" fill="#2405F2"/>
<path d="M42.3423 58.3926L40.5072 63.8981C40.2321 64.7229 41.0169 65.5074 41.8417 65.2319L47.344 63.3943L42.3423 58.3926Z" fill="#2405F2"/>
<path d="M58.726 41.0254L44.834 54.9174L50.8252 60.9087C53.9651 57.7683 60.0745 51.6581 64.7166 47.0159L58.726 41.0254Z" fill="#2405F2"/>
<path d="M70.7603 34.9768C70.0188 34.2311 68.927 33.8047 67.7693 33.8047C66.6115 33.8047 65.5199 34.2311 64.7741 34.9789L61.709 38.0441L67.6993 44.0343C69.3773 42.3561 70.5372 41.1963 70.7647 40.9689C72.4124 39.3187 72.4122 36.6308 70.7603 34.9768Z" fill="#2405F2"/>
<circle cx="56" cy="15" r="11.5" fill="white" stroke="#2405F2"/>
<path d="M53.81 10.75V8.878H57.554V22H55.484V10.75H53.81Z" fill="#2405F2"/>
</svg>
