<svg width="36" height="36" viewBox="0 0 36 36" fill="none" xmlns="http://www.w3.org/2000/svg">
<path opacity="0.5" d="M30 33.0635H6C4.38 33.0635 3.03 31.7435 3 30.1235V30.0635L4.5 10.5635C4.5 8.91348 5.85 7.56348 7.5 7.56348H28.5C30.15 7.56348 31.5 8.91348 31.5 10.5635L33 30.0635V30.1235C32.97 31.7435 31.62 33.0635 30 33.0635ZM5.25 30.1235C5.28 30.5135 5.61 30.8135 6 30.8135H30C30.39 30.8135 30.72 30.5135 30.75 30.1235L29.25 10.6535V10.5635C29.25 10.1435 28.92 9.81348 28.5 9.81348H7.5C7.08 9.81348 6.75 10.1435 6.75 10.5635V10.6985L5.25 30.1235Z" fill="#1C1E53"/>
<path opacity="0.5" d="M21.84 15.6935C22.41 15.1235 23.13 14.9135 23.7 15.4835C24.27 16.0535 23.955 16.6835 23.385 17.2535L17.565 23.1035C17.34 23.3285 17.07 23.4635 16.8 23.5085C16.335 23.6135 15.825 23.4785 15.45 23.1185L12.555 20.2085C11.985 19.6385 11.775 18.9035 12.345 18.3335C12.915 17.7635 14.04 18.5885 14.625 19.1585L16.5 21.0485L21.84 15.6935ZM10.5 8.76348C11.43 5.47848 14.445 3.06348 18 3.06348C21.555 3.06348 24.57 5.47848 25.5 8.76348H23.115C22.275 6.72348 20.295 5.29848 17.985 5.29848C15.675 5.29848 13.695 6.72348 12.855 8.76348H10.5Z" fill="#1C1E53"/>
</svg>
