<svg width="32" height="26" viewBox="0 0 32 26" fill="none" xmlns="http://www.w3.org/2000/svg">
<path fill-rule="evenodd" clip-rule="evenodd" d="M32 3.00917C30.8232 3.50399 29.5426 3.85986 28.2236 3.99857C29.585 3.20788 30.6194 1.95996 31.1078 0.475936C29.8503 1.2068 28.4273 1.74255 26.9467 2.01996C25.747 0.771991 24.0433 0 22.155 0C18.5209 0 15.5981 2.87065 15.5981 6.39328C15.5981 6.88791 15.6598 7.38272 15.7596 7.85866C10.318 7.58125 5.46473 5.04801 2.23814 1.16928C1.66898 2.12115 1.34599 3.20788 1.34599 4.39585C1.34599 6.61434 2.50345 8.57064 4.26877 9.72109C3.19183 9.67991 2.17671 9.38381 1.30374 8.90787V8.98657C1.30374 12.0933 3.55726 14.6679 6.56075 15.26C6.01077 15.3985 5.42247 15.4772 4.83399 15.4772C4.40716 15.4772 4.00341 15.4361 3.59577 15.3799C4.4263 17.9131 6.84524 19.7532 9.72575 19.8132C7.47223 21.5333 4.64939 22.5452 1.58447 22.5452C1.03449 22.5452 0.526908 22.5263 0 22.4665C2.90734 24.2839 6.35683 25.3333 10.0719 25.3333C22.1319 25.3333 28.7312 15.5973 28.7312 7.14649C28.7312 6.86927 28.7312 6.59185 28.712 6.31463C29.9887 5.40389 31.1078 4.27598 32 3.00917Z" fill="white"/>
</svg>
