<svg width="60" height="60" viewBox="0 0 60 60" fill="none" xmlns="http://www.w3.org/2000/svg">
<g opacity="0.8">
<path d="M57.5 4.72458C56.837 4.72458 56.2011 4.98797 55.7322 5.45681C55.2634 5.92565 55 6.56154 55 7.22458V13.4746C51.4403 8.10813 46.2483 4.02954 40.1916 1.84183C34.1348 -0.345879 27.5349 -0.526586 21.3675 1.32643C15.2002 3.17944 9.79274 6.96781 5.94475 12.1314C2.09676 17.2951 0.0124586 23.5599 0 29.9996C0.000101497 30.6626 0.263538 31.2983 0.732368 31.7671C1.2012 32.2359 1.83703 32.4992 2.5 32.4992C3.16298 32.4992 3.7988 32.2359 4.26763 31.7671C4.73646 31.2983 4.9999 30.6626 5 29.9996C5.00074 24.5241 6.79906 19.2003 10.1187 14.846C13.4384 10.4916 18.0957 7.34753 23.3755 5.89664C28.6552 4.44574 34.2652 4.7683 39.3438 6.81477C44.4225 8.86124 48.6888 12.5184 51.4875 17.2246H45C44.337 17.2246 43.7011 17.488 43.2322 17.9568C42.7634 18.4257 42.5 19.0615 42.5 19.7246C42.5 20.3876 42.7634 21.0235 43.2322 21.4923C43.7011 21.9612 44.337 22.2246 45 22.2246H57.5C57.8283 22.2246 58.1534 22.1599 58.4567 22.0343C58.76 21.9086 59.0356 21.7245 59.2678 21.4923C59.4999 21.2602 59.6841 20.9846 59.8097 20.6813C59.9353 20.378 60 20.0529 60 19.7246V7.22458C60 6.56154 59.7366 5.92565 59.2678 5.45681C58.7989 4.98797 58.163 4.72458 57.5 4.72458ZM57.5 27.4996C56.837 27.4996 56.2011 27.763 55.7322 28.2318C55.2634 28.7007 55 29.3365 55 29.9996C54.9993 35.475 53.2009 40.7988 49.8813 45.1532C46.5616 49.5075 41.9043 52.6516 36.6245 54.1025C31.3448 55.5534 25.7348 55.2309 20.6562 53.1844C15.5775 51.1379 11.3112 47.4807 8.5125 42.7746H15C15.663 42.7746 16.2989 42.5112 16.7678 42.0424C17.2366 41.5735 17.5 40.9376 17.5 40.2746C17.5 39.6115 17.2366 38.9757 16.7678 38.5068C16.2989 38.038 15.663 37.7746 15 37.7746H2.5C1.83696 37.7746 1.20107 38.038 0.732233 38.5068C0.263392 38.9757 0 39.6115 0 40.2746L0 52.7746C0.000101497 53.4376 0.263538 54.0733 0.732368 54.5421C1.2012 55.0109 1.83703 55.2742 2.5 55.2742C3.16298 55.2742 3.7988 55.0109 4.26763 54.5421C4.73646 54.0733 4.9999 53.4376 5 52.7746V46.5246C8.55968 51.891 13.7517 55.9696 19.8084 58.1573C25.8652 60.345 32.4651 60.5257 38.6325 58.6727C44.7998 56.8197 50.2073 53.0313 54.0552 47.8677C57.9032 42.7041 59.9875 36.4393 60 29.9996C60 29.3365 59.7366 28.7007 59.2678 28.2318C58.7989 27.763 58.163 27.4996 57.5 27.4996Z" fill="#333303"/>
</g>
</svg>
